<?xml version="1.0" standalone="no"?>
<!DOCTYPE svg PUBLIC "-//W3C//DTD SVG 20010904//EN"
 "http://www.w3.org/TR/2001/REC-SVG-20010904/DTD/svg10.dtd">
<svg version="1.0" xmlns="http://www.w3.org/2000/svg"
 width="152.000000pt" height="152.000000pt" viewBox="0 0 152.000000 152.000000"
 preserveAspectRatio="xMidYMid meet">
<metadata>
Created by potrace 1.14, written by Peter Selinger 2001-2017
</metadata>
<g transform="translate(0.000000,152.000000) scale(0.100000,-0.100000)"
fill="#000000" stroke="none">
<path d="M0 760 l0 -760 760 0 760 0 0 760 0 760 -760 0 -760 0 0 -760z m499
264 c27 -34 26 -52 -1 -81 -27 -28 -48 -29 -82 -2 -33 26 -33 53 -1 84 31 32
58 32 84 -1z m641 -24 l0 -40 -255 0 -255 0 0 40 0 40 255 0 255 0 0 -40z
m-641 -196 c27 -34 26 -52 -1 -81 -27 -28 -48 -29 -82 -2 -33 26 -33 53 -1 84
31 32 58 32 84 -1z m641 -34 l0 -40 -255 0 -255 0 0 40 0 40 255 0 255 0 0
-40z m-641 -196 c27 -34 26 -52 -1 -81 -27 -28 -48 -29 -82 -2 -33 26 -33 53
-1 84 31 32 58 32 84 -1z m641 -44 l0 -40 -255 0 -255 0 0 40 0 40 255 0 255
0 0 -40z"/>
</g>
</svg>
